<?xml version="1.0" encoding="UTF-8" standalone="no"?>
<svg width="43px" height="44px" viewBox="0 0 43 44" version="1.1" xmlns="http://www.w3.org/2000/svg" xmlns:xlink="http://www.w3.org/1999/xlink" xmlns:sketch="http://www.bohemiancoding.com/sketch/ns">
    <!-- Generator: Sketch 3.3.3 (12072) - http://www.bohemiancoding.com/sketch -->
    <title>noun_55028_cc</title>
    <desc>Created with Sketch.</desc>
    <defs></defs>
    <g id="Page-1" stroke="none" stroke-width="1" fill="none" fill-rule="evenodd" sketch:type="MSPage">
        <g id="Artboard-1-Copy-9" sketch:type="MSArtboardGroup" transform="translate(-474.000000, -3738.000000)" fill="#000000">
            <g id="Group" sketch:type="MSLayerGroup" transform="translate(458.000000, 3406.000000)">
                <g id="noun_55028_cc" transform="translate(16.000000, 332.000000)" sketch:type="MSShapeGroup">
                    <path d="M42.2084091,12.1601333 L34.1664318,12.1601333 L34.1664318,6.53888889 C34.1664318,5.45502222 33.8102159,4.63173333 33.0103182,3.86906667 L29.1642614,0.198977778 C29.1598636,0.194577778 29.154,0.192622222 29.1496023,0.188711111 C29.1080682,0.150577778 29.0616477,0.1188 29.0118068,0.0919111111 C28.9995909,0.0845777778 28.9883523,0.0782222222 28.9756477,0.0718666667 C28.9209205,0.0454666667 28.8632614,0.0249333333 28.8021818,0.0136888889 C28.7924091,0.0117333333 28.7826364,0.0117333333 28.7728636,0.0102666667 C28.7386591,0.00537777778 28.7044545,0 28.6682955,0 L14.3317045,0 C14.2955455,0 14.2608523,0.00537777778 14.2261591,0.0102666667 C14.2163864,0.0117333333 14.2071023,0.0117333333 14.1973295,0.0136888889 C14.13625,0.0249333333 14.0785909,0.0454666667 14.0238636,0.0713777778 C14.0116477,0.0777333333 13.9999205,0.0845777778 13.9877045,0.0914222222 C13.9378636,0.118311111 13.8919318,0.151066667 13.8499091,0.188222222 C13.8455114,0.192133333 13.8396477,0.194088889 13.83525,0.198488889 L9.98919318,3.86857778 C9.18978409,4.63173333 8.83307955,5.45502222 8.83307955,6.5384 L8.83307955,12.1601333 L0.791590909,12.1601333 C0.394329545,12.1601333 0.0723181818,12.4823111 0.0723181818,12.8792889 L0.0723181818,40.2404444 C0.0723181818,42.3133333 1.82407955,44 3.9775,44 L9.55284091,44 L14.3317045,44 L28.6682955,44 L33.4471591,44 L39.0225,44 C41.1759205,44 42.9276818,42.3133333 42.9276818,40.2409333 L42.9276818,12.8792889 C42.9276818,12.4823111 42.6056705,12.1601333 42.2084091,12.1601333 L42.2084091,12.1601333 Z M27.9495114,27.3611556 L15.0504886,27.3611556 L15.0504886,13.5989333 L27.9490227,13.5989333 L27.9490227,27.3611556 L27.9495114,27.3611556 Z M27.9495114,12.1601333 L15.0504886,12.1601333 L15.0504886,5.99915556 L27.9490227,5.99915556 L27.9490227,12.1601333 L27.9495114,12.1601333 Z M15.0504886,28.7999556 L27.9490227,28.7999556 L27.9490227,42.5612 L15.0504886,42.5612 L15.0504886,28.7999556 L15.0504886,28.7999556 Z M27.9495114,4.56035556 L15.0504886,4.56035556 L15.0504886,1.4388 L27.9490227,1.4388 L27.9490227,4.56035556 L27.9495114,4.56035556 Z M1.510375,40.2409333 L1.510375,13.5989333 L8.83356818,13.5989333 L8.83356818,42.5612 L3.9775,42.5612 C2.61713636,42.5612 1.510375,41.5203556 1.510375,40.2409333 L1.510375,40.2409333 Z M10.271625,42.5612 L10.271625,6.53888889 C10.271625,5.84564444 10.4641477,5.40417778 10.9821023,4.90991111 L13.6129205,2.39946667 L13.6129205,5.28 L13.6129205,42.5616889 L10.271625,42.5616889 L10.271625,42.5612 Z M29.3875682,42.5612 L29.3875682,5.27951111 L29.3875682,2.39946667 L32.0183864,4.90991111 C32.5363409,5.40417778 32.7288636,5.84564444 32.7288636,6.53888889 L32.7288636,42.5616889 L29.3875682,42.5616889 L29.3875682,42.5612 Z M41.489625,40.2409333 C41.489625,41.5203556 40.3828636,42.5616889 39.0225,42.5616889 L34.1664318,42.5616889 L34.1664318,13.5989333 L41.489625,13.5989333 L41.489625,40.2409333 L41.489625,40.2409333 Z" id="Shape"></path>
                </g>
            </g>
        </g>
    </g>
</svg>