<?xml version="1.0" encoding="UTF-8" standalone="no"?>
<svg width="49px" height="54px" viewBox="0 0 49 54" version="1.1" xmlns="http://www.w3.org/2000/svg" xmlns:xlink="http://www.w3.org/1999/xlink" xmlns:sketch="http://www.bohemiancoding.com/sketch/ns">
    <!-- Generator: Sketch 3.3.3 (12072) - http://www.bohemiancoding.com/sketch -->
    <title>noun_51053_cc</title>
    <desc>Created with Sketch.</desc>
    <defs></defs>
    <g id="Page-1" stroke="none" stroke-width="1" fill="none" fill-rule="evenodd" sketch:type="MSPage">
        <g id="Artboard-1-Copy-9" sketch:type="MSArtboardGroup" transform="translate(-471.000000, -3445.000000)" fill="#000000">
            <g id="Group" sketch:type="MSLayerGroup" transform="translate(458.000000, 3406.000000)">
                <g id="noun_51053_cc" transform="translate(13.000000, 39.000000)" sketch:type="MSShapeGroup">
                    <g id="Group" transform="translate(0.000000, 0.715920)">
                        <path d="M41.6081387,45.0998069 C43.1643688,45.0998069 44.4052748,46.3443172 44.4052748,47.9128917 C44.4052748,49.4814074 43.1643688,50.7321508 41.6081387,50.7321508 C40.0519144,50.7321508 38.8140888,49.4814074 38.8140888,47.9128917 C38.8140888,47.7168419 38.8327581,47.5276133 38.8696883,47.3434418 L40.2157665,48.8619748 C40.5912852,49.288978 41.1646733,49.4810014 41.7190588,49.3654164 C42.2734443,49.2498313 42.7241921,48.8442835 42.9008163,48.3021628 C43.0774406,47.7600421 42.952977,47.1641112 42.5745013,46.7397685 L41.1543235,45.1340891 C41.3016358,45.1105679 41.4536971,45.0999833 41.608162,45.0999833 L41.6081387,45.0998069 Z M15.8226116,39.4083658 C17.1094907,39.4083658 18.2897857,39.8395694 19.2341303,40.565965 L14.8593586,43.8302465 C14.1577116,44.3544155 14.010501,45.3526368 14.5305547,46.0598362 C15.0506083,46.7670357 16.0409924,46.9154111 16.7426394,46.3912421 L21.105066,43.1331937 C21.3210871,43.7365142 21.4384993,44.3878181 21.4384993,45.0687 C21.4384993,48.208554 18.9377847,50.7290342 15.8226116,50.7290342 C12.7074385,50.7290342 10.2067297,48.208554 10.2067297,45.0687 C10.2067297,41.9289048 12.7074385,39.4083658 15.8226116,39.4083658 L15.8226116,39.4083658 Z M19.4348075,18.2109584 L31.0247122,31.2991148 L40.953623,31.2991148 C45.3322219,31.2991148 48.8572323,27.7461686 48.8572323,23.3329438 L48.8572323,18.2109584 L19.4348075,18.2109584 L19.4348075,18.2109584 Z M5.95236317,18.2109584 L5.95236317,23.3329438 C5.95236317,27.7461686 9.47737355,31.2991148 13.8559724,31.2991148 L22.5468535,31.2991148 L10.9600409,18.2109584 L5.95236317,18.2109584 L5.95236317,18.2109584 Z M1.51275658,1.23931729 C0.898434508,1.26603694 0.355219198,1.6493638 0.120132709,2.22204021 C-0.114953779,2.79471662 0.00074556245,3.45282907 0.416747443,3.90922224 L27.4433906,34.4357935 L21.0186156,39.2310155 C19.6379642,37.9810953 17.816292,37.2177126 15.8226116,37.2177126 C11.5327968,37.2177126 8.03013703,40.7449618 8.0301487,45.0687 C8.0301487,49.392497 11.5327968,52.9197463 15.8226116,52.9197463 C20.1124264,52.9197463 23.6119882,49.392497 23.6119882,45.0687 C23.6119882,43.9013395 23.3558341,42.7927822 22.898816,41.7951276 L29.558223,36.8224965 L37.2518904,45.5137224 C36.8618484,46.2271812 36.6405941,47.0453097 36.6405999,47.9128917 C36.6405999,50.6653504 38.8772727,52.9228628 41.6081387,52.9228628 C44.3390105,52.9228628 46.5787695,50.6653504 46.5787695,47.9128917 C46.5787695,45.160433 44.3390105,42.9091537 41.6081387,42.9091537 C40.8846983,42.9091537 40.1953995,43.0673342 39.5735784,43.3510007 L2.77548231,1.78698648 C2.45947199,1.41987969 1.99450726,1.21821527 1.51275658,1.23931729 L1.51275658,1.23931729 Z M32.0497138,0.000828475997 C30.6762385,0.0146472206 29.2822152,0.201629536 27.8941428,0.576505616 L32.2040796,16.7888744 L48.8572323,16.7888744 C48.8572323,15.3220529 48.6658197,13.8616762 48.2891612,12.4448315 C46.2807145,4.88990032 39.4664575,-0.0737280614 32.0497138,0.000828475997 L32.0497138,0.000828475997 Z" id="Shape"></path>
                    </g>
                </g>
            </g>
        </g>
    </g>
</svg>