<?xml version="1.0" encoding="UTF-8" standalone="no"?>
<svg width="43px" height="61px" viewBox="0 0 43 61" version="1.1" xmlns="http://www.w3.org/2000/svg" xmlns:xlink="http://www.w3.org/1999/xlink" xmlns:sketch="http://www.bohemiancoding.com/sketch/ns">
    <!-- Generator: Sketch 3.3.3 (12072) - http://www.bohemiancoding.com/sketch -->
    <title>noun_65302_cc</title>
    <desc>Created with Sketch.</desc>
    <defs></defs>
    <g id="Page-1" stroke="none" stroke-width="1" fill="none" fill-rule="evenodd" sketch:type="MSPage">
        <g id="Artboard-1-Copy-9" sketch:type="MSArtboardGroup" transform="translate(-473.000000, -4020.000000)" fill="#000000">
            <g id="Group" sketch:type="MSLayerGroup" transform="translate(458.000000, 3406.000000)">
                <g id="noun_65302_cc" transform="translate(15.000000, 614.168440)" sketch:type="MSShapeGroup">
                    <path d="M34.1249792,14.0583125 L34.1249792,4.69864583 C34.1249792,2.31304167 32.1846042,0.371770833 29.799,0.371770833 C27.4133958,0.371770833 25.4730208,2.31304167 25.4730208,4.69864583 L25.4730208,13.7483542 L11.4442708,13.7483542 C5.27825,13.7483542 0.263375,18.7650208 0.263375,24.9301458 L0.263375,59.3704583 C0.263375,60.0190417 0.788333333,60.544 1.43691667,60.544 L41.564875,60.544 C42.2134583,60.544 42.7384167,60.0190417 42.7384167,59.3704583 L42.7384167,24.9301458 C42.7375208,19.6501042 39.0538542,15.2237917 34.1249792,14.0583125 L34.1249792,14.0583125 Z M27.8192083,4.69864583 C27.8192083,3.606625 28.7069792,2.71885417 29.799,2.71885417 C30.8910208,2.71885417 31.7787917,3.606625 31.7787917,4.69864583 L31.7787917,13.7483542 L31.5548333,13.7483542 L27.8192083,13.7483542 L27.8192083,4.69864583 L27.8192083,4.69864583 Z M40.3904375,58.1978125 L2.6095625,58.1978125 L2.6095625,24.9301458 C2.6095625,20.0586042 6.573625,16.0954375 11.4442708,16.0954375 L26.6465625,16.0954375 L31.5548333,16.0954375 C36.426375,16.0954375 40.3904375,20.0586042 40.3904375,24.9301458 L40.3904375,58.1978125 L40.3904375,58.1978125 Z" id="Shape"></path>
                    <path d="M30.3033542,20.8200625 L12.69575,20.8200625 C9.8120625,20.8200625 7.465875,23.1671458 7.465875,26.0508333 L7.465875,32.2383542 C7.465875,35.1220417 9.8120625,37.4682292 12.69575,37.4682292 L30.3024583,37.4682292 C33.1870417,37.4682292 35.5332292,35.1220417 35.5332292,32.2383542 L35.5332292,26.0508333 C35.534125,23.1671458 33.1870417,20.8200625 30.3033542,20.8200625 L30.3033542,20.8200625 Z M33.1870417,32.23925 C33.1870417,33.8284583 31.8934583,35.1229375 30.3024583,35.1229375 L12.69575,35.1229375 C11.1065417,35.1229375 9.8120625,33.8293542 9.8120625,32.23925 L9.8120625,26.0508333 C9.8120625,24.4607292 11.1056458,23.16625 12.69575,23.16625 L30.3024583,23.16625 C31.8925625,23.16625 33.1870417,24.4598333 33.1870417,26.0508333 L33.1870417,32.23925 L33.1870417,32.23925 Z" id="Shape"></path>
                    <path d="M26.0553125,44.5220208 C26.7038958,44.5220208 27.2288542,43.9970625 27.2288542,43.3484792 C27.2288542,42.6998958 26.7038958,42.1749375 26.0553125,42.1749375 L16.861375,42.1749375 C16.2127917,42.1749375 15.6878333,42.6998958 15.6878333,43.3484792 C15.6878333,43.9970625 16.2127917,44.5220208 16.861375,44.5220208 L26.0553125,44.5220208 L26.0553125,44.5220208 Z" id="Shape"></path>
                    <path d="M26.0553125,50.92275 L16.861375,50.92275 C16.2127917,50.92275 15.6878333,51.4477083 15.6878333,52.0962917 C15.6878333,52.744875 16.2127917,53.2698333 16.861375,53.2698333 L26.0562083,53.2698333 C26.7047917,53.2698333 27.22975,52.744875 27.22975,52.0962917 C27.22975,51.4477083 26.7038958,50.92275 26.0553125,50.92275 L26.0553125,50.92275 Z" id="Shape"></path>
                    <path d="M27.9329792,46.612 L14.9837083,46.612 C14.335125,46.612 13.8101667,47.1369583 13.8101667,47.7855417 C13.8101667,48.434125 14.335125,48.9590833 14.9837083,48.9590833 L27.9329792,48.9590833 C28.5815625,48.9590833 29.1065208,48.434125 29.1065208,47.7855417 C29.1065208,47.1369583 28.5815625,46.612 27.9329792,46.612 L27.9329792,46.612 Z" id="Shape"></path>
                </g>
            </g>
        </g>
    </g>
</svg>