<?xml version="1.0" encoding="UTF-8" standalone="no"?>
<svg width="61px" height="48px" viewBox="0 0 61 48" version="1.1" xmlns="http://www.w3.org/2000/svg" xmlns:xlink="http://www.w3.org/1999/xlink" xmlns:sketch="http://www.bohemiancoding.com/sketch/ns">
    <!-- Generator: Sketch 3.3.3 (12072) - http://www.bohemiancoding.com/sketch -->
    <title>icon-crib copy</title>
    <desc>Created with Sketch.</desc>
    <defs></defs>
    <g id="Page-1" stroke="none" stroke-width="1" fill="none" fill-rule="evenodd" sketch:type="MSPage">
        <g id="Artboard-1-Copy-9" sketch:type="MSArtboardGroup" transform="translate(-465.000000, -3591.000000)" fill="#000000">
            <g id="Group" sketch:type="MSLayerGroup" transform="translate(458.000000, 3406.000000)">
                <g id="icon-crib-copy" transform="translate(7.000000, 185.000000)" sketch:type="MSShapeGroup">
                    <g id="Group">
                        <rect id="Rectangle-path" x="8.08913043" y="8.8" width="2.65217391" height="34.4"></rect>
                        <path d="M9.41521739,10.1333333 C6.89565217,10.1333333 4.77391304,8 4.77391304,5.46666667 C4.77391304,2.93333333 6.89565217,0.8 9.41521739,0.8 C11.9347826,0.8 14.0565217,2.93333333 14.0565217,5.46666667 C14.0565217,8 11.9347826,10.1333333 9.41521739,10.1333333 L9.41521739,10.1333333 Z M9.41521739,3.46666667 C8.35434783,3.46666667 7.42608696,4.4 7.42608696,5.46666667 C7.42608696,6.53333333 8.35434783,7.46666667 9.41521739,7.46666667 C10.476087,7.46666667 11.4043478,6.53333333 11.4043478,5.46666667 C11.4043478,4.4 10.476087,3.46666667 9.41521739,3.46666667 L9.41521739,3.46666667 Z" id="Shape"></path>
                        <rect id="Rectangle-path" x="50.2586957" y="8.8" width="2.65217391" height="34.4"></rect>
                        <path d="M51.5847826,10.1333333 C49.0652174,10.1333333 46.9434783,8 46.9434783,5.46666667 C46.9434783,2.93333333 49.0652174,0.8 51.5847826,0.8 C54.1043478,0.8 56.226087,2.93333333 56.226087,5.46666667 C56.226087,8 54.1043478,10.1333333 51.5847826,10.1333333 L51.5847826,10.1333333 Z M51.5847826,3.46666667 C50.523913,3.46666667 49.5956522,4.4 49.5956522,5.46666667 C49.5956522,6.53333333 50.523913,7.46666667 51.5847826,7.46666667 C52.6456522,7.46666667 53.573913,6.53333333 53.573913,5.46666667 C53.573913,4.4 52.6456522,3.46666667 51.5847826,3.46666667 L51.5847826,3.46666667 Z" id="Shape"></path>
                        <path d="M52.9108696,36.5333333 L8.08913043,36.5333333 L8.08913043,15.4666667 L52.9108696,15.4666667 L52.9108696,36.5333333 L52.9108696,36.5333333 Z M10.7413043,33.8666667 L50.2586957,33.8666667 L50.2586957,18.1333333 L10.7413043,18.1333333 L10.7413043,33.8666667 L10.7413043,33.8666667 Z" id="Shape"></path>
                        <g transform="translate(15.913043, 16.000000)">
                            <g transform="translate(21.217391, 5.333333)" id="Shape">
                                <path d="M3.97826087,8.66666667 C1.72391304,8.66666667 0,6.93333333 0,4.66666667 C0,2.4 1.72391304,0.666666667 3.97826087,0.666666667 L3.97826087,3.33333333 C3.1826087,3.33333333 2.65217391,3.86666667 2.65217391,4.66666667 C2.65217391,5.46666667 3.1826087,6 3.97826087,6 L3.97826087,8.66666667 L3.97826087,8.66666667 Z"></path>
                                <path d="M3.97826087,8.66666667 L3.97826087,6 C4.77391304,6 5.30434783,5.46666667 5.30434783,4.66666667 C5.30434783,3.86666667 4.77391304,3.33333333 3.97826087,3.33333333 L3.97826087,0.666666667 C6.2326087,0.666666667 7.95652174,2.4 7.95652174,4.66666667 C7.95652174,6.93333333 6.1,8.66666667 3.97826087,8.66666667 L3.97826087,8.66666667 Z"></path>
                            </g>
                            <g transform="translate(10.608696, 5.333333)" id="Shape">
                                <path d="M3.97826087,8.66666667 L3.97826087,6 C4.77391304,6 5.30434783,5.46666667 5.30434783,4.66666667 C5.30434783,3.86666667 4.77391304,3.33333333 3.97826087,3.33333333 L3.97826087,0.666666667 C6.2326087,0.666666667 7.95652174,2.4 7.95652174,4.66666667 C7.95652174,6.93333333 6.2326087,8.66666667 3.97826087,8.66666667 L3.97826087,8.66666667 Z"></path>
                                <path d="M3.97826087,8.66666667 C1.72391304,8.66666667 0,6.93333333 0,4.66666667 C0,2.4 1.72391304,0.666666667 3.97826087,0.666666667 L3.97826087,3.33333333 C3.1826087,3.33333333 2.65217391,3.86666667 2.65217391,4.66666667 C2.65217391,5.46666667 3.1826087,6 3.97826087,6 L3.97826087,8.66666667 L3.97826087,8.66666667 Z"></path>
                            </g>
                            <g transform="translate(0.000000, 5.333333)" id="Shape">
                                <path d="M3.97826087,8.66666667 L3.97826087,6 C4.77391304,6 5.30434783,5.46666667 5.30434783,4.66666667 C5.30434783,3.86666667 4.77391304,3.33333333 3.97826087,3.33333333 L3.97826087,0.666666667 C6.2326087,0.666666667 7.95652174,2.4 7.95652174,4.66666667 C7.95652174,6.93333333 6.2326087,8.66666667 3.97826087,8.66666667 L3.97826087,8.66666667 Z"></path>
                                <path d="M3.97826087,8.66666667 C1.72391304,8.66666667 0,6.93333333 0,4.66666667 C0,2.4 1.72391304,0.666666667 3.97826087,0.666666667 L3.97826087,3.33333333 C3.1826087,3.33333333 2.65217391,3.86666667 2.65217391,4.66666667 C2.65217391,5.46666667 3.1826087,6 3.97826087,6 L3.97826087,8.66666667 L3.97826087,8.66666667 Z"></path>
                            </g>
                            <rect id="Rectangle-path" x="23.8695652" y="0.8" width="2.65217391" height="6.93333333"></rect>
                            <rect id="Rectangle-path" x="23.8695652" y="12.2666667" width="2.65217391" height="6.93333333"></rect>
                            <rect id="Rectangle-path" x="13.2608696" y="0.8" width="2.65217391" height="6.93333333"></rect>
                            <rect id="Rectangle-path" x="13.2608696" y="12.2666667" width="2.65217391" height="6.93333333"></rect>
                            <rect id="Rectangle-path" x="2.65217391" y="0.8" width="2.65217391" height="6.93333333"></rect>
                            <rect id="Rectangle-path" x="2.65217391" y="12.2666667" width="2.65217391" height="6.93333333"></rect>
                        </g>
                        <path d="M30.5,47.2 C19.4934783,47.2 8.35434783,44.8 0,39.8666667 L1.32608696,37.6 C17.3717391,46.9333333 43.6282609,46.9333333 59.673913,37.6 L61,39.8666667 C52.6456522,44.8 41.5065217,47.2 30.5,47.2 L30.5,47.2 Z" id="Shape"></path>
                    </g>
                </g>
            </g>
        </g>
    </g>
</svg>