<?xml version="1.0" encoding="UTF-8" standalone="no"?>
<svg width="52px" height="54px" viewBox="0 0 52 54" version="1.1" xmlns="http://www.w3.org/2000/svg" xmlns:xlink="http://www.w3.org/1999/xlink" xmlns:sketch="http://www.bohemiancoding.com/sketch/ns">
    <!-- Generator: Sketch 3.3.3 (12072) - http://www.bohemiancoding.com/sketch -->
    <title>noun_111169_cc</title>
    <desc>Created with Sketch.</desc>
    <defs></defs>
    <g id="Page-1" stroke="none" stroke-width="1" fill="none" fill-rule="evenodd" sketch:type="MSPage">
        <g id="Artboard-1-Copy-9" sketch:type="MSArtboardGroup" transform="translate(-470.000000, -3877.000000)">
            <g id="Group" sketch:type="MSLayerGroup" transform="translate(458.000000, 3406.000000)">
                <g id="noun_111169_cc" transform="translate(12.000000, 471.000000)" sketch:type="MSShapeGroup">
                    <g id="Group">
                        <ellipse id="Oval" fill="#000000" cx="8.51" cy="21.672" rx="2.813" ry="2.844"></ellipse>
                        <ellipse id="Oval" fill="#000000" cx="43.346" cy="23.438" rx="2" ry="1.969"></ellipse>
                        <ellipse id="Oval" fill="#000000" cx="13.202" cy="10.224" rx="2.75" ry="2.781"></ellipse>
                        <ellipse id="Oval" fill="#000000" cx="25.708" cy="25.812" rx="2.833" ry="2.641"></ellipse>
                        <ellipse id="Oval" fill="#000000" cx="24.291" cy="12.734" rx="2.792" ry="2.781"></ellipse>
                        <ellipse id="Oval" fill="#000000" cx="33.708" cy="21.133" rx="2.292" ry="2.305"></ellipse>
                        <ellipse id="Oval" fill="#000000" cx="34.375" cy="11.755" rx="2.958" ry="3.052"></ellipse>
                        <ellipse id="Oval" fill="#000000" cx="22.874" cy="2.599" rx="2.083" ry="2"></ellipse>
                        <ellipse id="Oval" fill="#000000" cx="18.708" cy="19.672" rx="2.083" ry="2"></ellipse>
                        <g transform="translate(0.000000, 27.000000)" id="Shape">
                            <path d="M50.908,1.011 C52.847,1.851 51.128,4.441 50.517,5.681 C48.807,9.101 46.997,12.631 44.587,15.691 C43.837,16.641 42.747,17.601 42.367,18.752 C42.167,19.382 42.417,19.792 42.647,20.332 C42.867,20.832 43.006,21.361 43.187,21.821 C43.197,21.832 43.197,21.851 43.197,21.861 C43.567,22.721 43.176,23.931 42.636,24.641 C41.897,25.621 40.456,26.071 39.266,26.141 C38.306,26.201 37.607,26.011 36.777,25.581 C35.797,25.07 35.087,24.351 34.237,23.671 C33.297,22.931 32.407,22.981 31.237,23.041 C29.897,23.101 28.547,23.221 27.207,23.211 L25.547,23.211 C24.207,23.221 22.857,23.101 21.517,23.041 C20.347,22.98 19.457,22.931 18.517,23.671 C17.667,24.351 16.957,25.07 15.977,25.581 C15.147,26.011 14.447,26.2 13.487,26.141 C12.297,26.071 10.857,25.621 10.117,24.641 C9.577,23.931 9.177,22.731 9.547,21.871 C9.557,21.85 9.557,21.841 9.567,21.82 C9.747,21.36 9.867,20.94 10.097,20.331 C10.307,19.78 10.587,19.381 10.377,18.751 C10.007,17.61 8.907,16.641 8.157,15.69 C5.747,12.63 3.937,9.1 2.237,5.69 C1.617,4.44 -0.093,1.85 1.837,1.02 C2.507,0.73 3.627,0.82 4.347,0.93 C5.017,1.03 5.707,1.12 6.407,1.45 C6.407,1.48 14.287,6.07 25.877,6.09 C31.797,6.1 39.607,3.97 46.137,1.55 L46.158,1.54 C46.928,1.13 47.668,1.03 48.408,0.92 C49.118,0.811 50.238,0.721 50.908,1.011 L50.908,1.011 Z" fill="#000000"></path>
                            <g stroke="#000000" stroke-width="0.25">
                                <path d="M6.408,1.451 C6.408,1.481 14.288,6.071 25.878,6.091 C31.798,6.101 39.608,3.971 46.138,1.551"></path>
                                <path d="M6.588,1.541 C6.528,1.511 6.468,1.481 6.408,1.451 C5.708,1.121 5.018,1.031 4.348,0.931 C3.628,0.821 2.508,0.731 1.838,1.021 C-0.092,1.851 1.618,4.441 2.238,5.691 C3.938,9.101 5.748,12.631 8.158,15.691 C8.908,16.641 10.008,17.611 10.378,18.752 C10.588,19.382 10.308,19.781 10.098,20.332 C9.868,20.941 9.748,21.361 9.568,21.821"></path>
                                <path d="M46.158,1.541 C46.928,1.131 47.668,1.031 48.408,0.921 C49.118,0.811 50.238,0.721 50.908,1.011 C52.847,1.851 51.128,4.441 50.517,5.681 C48.807,9.101 46.997,12.631 44.587,15.691 C43.837,16.641 42.747,17.601 42.367,18.752 C42.167,19.382 42.417,19.792 42.647,20.332 C42.867,20.832 43.006,21.361 43.187,21.821"></path>
                                <path d="M9.568,21.82 C9.558,21.841 9.558,21.85 9.548,21.871 C9.178,22.73 9.578,23.931 10.118,24.641 C10.858,25.621 12.298,26.071 13.488,26.141 C14.448,26.201 15.148,26.011 15.978,25.581 C16.958,25.07 17.668,24.351 18.518,23.671 C19.458,22.931 20.348,22.981 21.518,23.041 C22.858,23.101 24.208,23.221 25.548,23.211"></path>
                                <path d="M43.188,21.82 C43.198,21.831 43.198,21.85 43.198,21.86 C43.568,22.72 43.177,23.93 42.637,24.64 C41.898,25.62 40.457,26.07 39.267,26.14 C38.307,26.2 37.608,26.01 36.778,25.58 C35.798,25.069 35.088,24.35 34.238,23.67 C33.298,22.93 32.408,22.98 31.238,23.04 C29.898,23.1 28.548,23.22 27.208,23.21"></path>
                                <path d="M25.548,23.211 L27.208,23.211"></path>
                            </g>
                        </g>
                    </g>
                </g>
            </g>
        </g>
    </g>
</svg>