<?xml version="1.0" encoding="UTF-8" standalone="no"?>
<svg width="30px" height="43px" viewBox="0 0 30 43" version="1.1" xmlns="http://www.w3.org/2000/svg" xmlns:xlink="http://www.w3.org/1999/xlink" xmlns:sketch="http://www.bohemiancoding.com/sketch/ns">
    <!-- Generator: Sketch 3.3.3 (12072) - http://www.bohemiancoding.com/sketch -->
    <title>icon-badge</title>
    <desc>Created with Sketch.</desc>
    <defs></defs>
    <g id="web-reco-view" stroke="none" stroke-width="1" fill="none" fill-rule="evenodd" sketch:type="MSPage">
        <g id="web-reco-new-06" sketch:type="MSArtboardGroup" transform="translate(-509.000000, -3062.000000)" fill="#F6A623">
            <g id="accolades-and-reviews" sketch:type="MSLayerGroup" transform="translate(468.750000, 2844.892578)">
                <g id="accolades" transform="translate(23.000000, 216.585938)" sketch:type="MSShapeGroup">
                    <g id="icon-badge" transform="translate(17.250000, 0.925187)">
                        <path d="M23.9764497,26.8931349 L29.5740083,37.5542828 L23.6167945,38.0335404 L19.8641654,42.4401652 L14.9210266,34.6367494 L9.97746373,42.439741 L5.9877506,37.9733151 L0.207819648,37.5542828 L5.80792299,26.8931349 L5.86772415,26.8329096 C5.92794944,27.2498212 6.10523232,27.5484029 6.3448611,27.9050893 C6.76177276,28.5005562 7.41576847,28.8576667 8.19021475,29.2745784 C8.84675519,29.5129348 9.44094974,29.6329612 9.97788785,29.6329612 C10.5746271,29.6329612 11.1688217,29.5133589 11.5259322,29.2745784 C11.8253621,29.5129348 12.1226714,29.8115165 12.4797819,29.9900717 C13.0765212,30.3484546 13.8501193,30.5855387 14.7441679,30.5855387 C15.5779912,30.5855387 16.2922122,30.3480305 16.9487526,29.9900717 C17.3058631,29.8115165 17.5429472,29.5133589 17.7800312,29.2745784 C18.3169693,29.5129348 18.8534833,29.6329612 19.4502226,29.6329612 C19.984616,29.6329612 20.52113,29.5133589 21.1751257,29.2745784 C22.0687502,28.8576667 22.6056883,28.5005562 23.0225999,27.9050893 C23.2618046,27.5479788 23.4993128,27.2498212 23.6189151,26.8329096 C23.6791404,26.8931349 23.7363968,26.8931349 23.8564233,26.8931349 C23.9162244,26.8931349 23.9162244,26.8931349 23.9764497,26.8931349 L23.9764497,26.8931349 Z M28.9798138,14.3238632 C28.9798138,14.9193301 28.8597873,15.396043 28.6227033,15.7531535 C28.3232733,16.4084215 24.8696501,16.2302904 24.2135338,16.2302904 L24.0964762,16.2302904 L24.2135338,16.2302904 C24.810273,16.528448 28.025964,17.6006277 28.0861893,18.2563199 C28.2057916,18.7321845 28.0861893,19.2088973 27.8465605,19.8043642 C27.3723924,21.1149004 26.4783438,21.413058 25.9418298,21.413058 C25.5847193,21.413058 22.9632229,19.8641654 22.8431964,19.7454113 L22.6659136,19.6856102 L22.7257147,19.7454113 C23.0832493,20.1025218 25.8218034,22.4843895 25.5847193,23.0811287 C25.4646929,23.5569933 25.2276088,23.9747532 24.8106972,24.3916649 C24.2139579,24.9871318 23.6770198,25.284017 23.0230241,25.284017 C22.6659136,25.284017 20.4613288,22.7223218 20.1042183,22.3656354 L20.0444171,22.3058342 L20.0444171,22.4843895 C20.2815012,22.9611023 21.771865,26.1182645 21.4147545,26.5949773 C21.1174451,26.9520878 20.758214,27.3104706 20.1640195,27.4886018 C19.7471078,27.667157 19.329772,27.785487 18.9726615,27.785487 C18.1965188,27.785487 16.9483285,24.4501937 16.5886733,23.8543027 L16.5886733,23.7355486 L16.5886733,23.8543027 C16.5886733,24.4497696 16.7685009,27.9050893 16.1717616,28.2023986 C15.8146511,28.5005562 15.2781371,28.6193103 14.7437437,28.6193103 C14.0872033,28.6193103 13.6104905,28.5005562 13.25338,28.2023986 C12.6591854,27.9050893 12.8364683,24.4497696 12.8364683,23.8543027 L12.8364683,23.7355486 L12.7766672,23.8543027 C12.539159,24.4497696 11.2286228,27.785487 10.3947995,27.785487 C10.0974902,27.785487 9.68057852,27.667157 9.20386569,27.4886018 C8.66692758,27.3100465 8.3102412,26.9516637 8.01293187,26.5949773 C7.59602021,26.1182645 9.08426336,22.9611023 9.32389214,22.4843895 L9.44137386,22.3058342 L9.20386569,22.3656354 C8.84675519,22.7227459 6.70239572,25.284017 6.34528522,25.284017 C5.80834711,25.284017 5.21203196,24.9871318 4.61741329,24.3916649 C4.20050163,23.9747532 3.90107168,23.5565692 3.84127052,23.0811287 C3.66398764,22.4843895 6.22525877,20.1025218 6.58236927,19.7454113 L6.76177276,19.6856102 L6.52214398,19.7454113 C6.40254166,19.8641654 3.78316584,21.413058 3.54396119,21.413058 C2.88996548,21.413058 2.1155192,21.1149004 1.51920404,19.8043642 C1.28169587,19.2088973 1.22189471,18.7321845 1.28169587,18.2563199 C1.33937643,17.6010519 4.61741329,16.528448 5.21160783,16.2302904 L5.33163428,16.2302904 L5.21160783,16.2302904 C4.61741329,16.2302904 1.16209354,16.4088457 0.804983046,15.7531535 C0.505553104,15.396043 0.44575194,14.9193301 0.44575194,14.3238632 C0.44575194,13.7283963 0.505553104,13.1927306 0.804983046,12.8347718 C1.16209354,12.2991061 4.61741329,12.4776613 5.21160783,12.4776613 L5.33163428,12.4776613 L5.21160783,12.4178602 C4.61741329,12.180352 1.33937643,11.0483711 1.28169587,10.3328777 C1.22189471,9.91596608 1.28169587,9.38030033 1.51920404,8.84378634 C2.11594332,7.53409844 2.88996548,7.29574202 3.54396119,7.29574202 C3.78358997,7.29574202 6.40254166,8.84378634 6.52214398,8.96338867 L6.76177276,9.02234159 L6.58236927,8.84378634 C6.22525877,8.48667584 3.66356352,6.16376112 3.84127052,5.50806892 C3.90107168,5.09115726 4.20050163,4.6742456 4.61741329,4.19753278 C5.21160783,3.66186703 5.80834711,3.42351062 6.34528522,3.42351062 C6.70239572,3.42351062 8.84675519,5.80665062 9.20386569,6.22356229 L9.44137386,6.40211753 L9.32389214,6.16376112 C9.08426336,5.68662417 7.59602021,2.58968729 8.01293187,1.99422038 C8.3102412,1.63710988 8.66692758,1.39875347 9.20386569,1.16039706 C9.68100264,0.981841808 10.0974902,0.922040644 10.3947995,0.922040644 C11.2286228,0.922040644 12.5395831,4.1979569 12.7766672,4.85322497 L12.8364683,4.9728273 L12.8364683,4.85280085 C12.8364683,4.19753278 12.6591854,0.743061273 13.25338,0.385950776 C13.6104905,0.147594363 14.0872033,0.0275679125 14.7437437,0.0275679125 C15.2781371,0.0275679125 15.8146511,0.147594363 16.1717616,0.385950776 C16.7685009,0.743061273 16.5886733,4.19710865 16.5886733,4.85280085 L16.5886733,4.97240318 L16.5886733,4.85280085 C16.9483285,4.19753278 18.1965188,0.921616522 18.9726615,0.921616522 C19.329772,0.921616522 19.7466837,0.981841808 20.1640195,1.15997294 C20.758214,1.39832935 21.1174451,1.63668576 21.4147545,1.99379626 C21.771865,2.58926317 20.2810771,5.68662417 20.0444171,6.163337 L20.0444171,6.40169341 L20.1042183,6.22313816 C20.4613288,5.8062265 22.6659136,3.42308649 23.0230241,3.42308649 C23.6770198,3.42308649 24.2139579,3.66144291 24.8106972,4.19710865 C25.2276088,4.6742456 25.4646929,5.09073314 25.5847193,5.5076448 C25.8218034,6.16291288 23.0832493,8.48625172 22.7257147,8.84336222 L22.6659136,9.02191747 L22.8431964,8.96296455 C22.9627988,8.84336222 25.5847193,7.2953179 25.9418298,7.2953179 C26.4787679,7.2953179 27.3723924,7.53367431 27.8465605,8.84336222 C28.0861893,9.38030033 28.2062157,9.91554196 28.0861893,10.3324536 C28.025964,11.047947 24.810273,12.1799279 24.2135338,12.4174361 L24.0964762,12.4772372 L24.2135338,12.4772372 C24.8700742,12.4772372 28.3232733,12.298682 28.6227033,12.8343477 C28.8597873,13.1927306 28.9798138,13.7283963 28.9798138,14.3238632 L28.9798138,14.3238632 Z M23.9162244,14.3238632 C23.9162244,9.20174508 19.806909,5.03220434 14.7433196,5.03220434 C9.61992911,5.03220434 5.39101133,9.20174508 5.39101133,14.3238632 C5.39101133,19.3870285 9.62035323,23.5565692 14.7433196,23.5565692 C19.806909,23.5565692 23.9162244,19.3870285 23.9162244,14.3238632 L23.9162244,14.3238632 Z M21.771865,14.3238632 C21.771865,10.3328777 18.6732316,7.17571557 14.7437437,7.17571557 C10.7514859,7.17571557 7.53579492,10.3324536 7.53579492,14.3238632 C7.53579492,18.2558958 10.7514859,21.413058 14.7437437,21.413058 C18.6732316,21.413058 21.771865,18.2558958 21.771865,14.3238632 L21.771865,14.3238632 Z" id="Shape"></path>
                    </g>
                </g>
            </g>
        </g>
    </g>
</svg>