<?xml version="1.0" encoding="utf-8"?>
<!-- Generator: Adobe Illustrator 17.1.0, SVG Export Plug-In . SVG Version: 6.00 Build 0)  -->
<!DOCTYPE svg PUBLIC "-//W3C//DTD SVG 1.1//EN" "http://www.w3.org/Graphics/SVG/1.1/DTD/svg11.dtd">
<svg version="1.1" id="Layer_1" xmlns="http://www.w3.org/2000/svg" xmlns:xlink="http://www.w3.org/1999/xlink" x="0px" y="0px"
	 viewBox="0 0 40 40" enable-background="new 0 0 40 40" xml:space="preserve">
<path id="White_1_" fill="#4D4D4D" d="M37.9,0H2.1C1,0,0,1,0,2.1v35.6C0,39,1,40,2.1,40h19.3V24.6h-5.1v-6h5.1v-4.4
	c0-5.1,3.1-8,7.7-8c2.1,0,4.1,0.1,4.7,0.3v5.4h-3.1c-2.6,0-3,1.1-3,3v3.9h6l-0.9,5.9h-5.1V40h10.1c1.3,0,2.1-1,2.1-2.1V2.1
	C40,1,39,0,37.9,0z"/>
</svg>
