<?xml version="1.0" encoding="utf-8"?>
<!-- Generator: Adobe Illustrator 17.1.0, SVG Export Plug-In . SVG Version: 6.00 Build 0)  -->
<!DOCTYPE svg PUBLIC "-//W3C//DTD SVG 1.1//EN" "http://www.w3.org/Graphics/SVG/1.1/DTD/svg11.dtd">
<svg version="1.1" id="Layer_1" xmlns="http://www.w3.org/2000/svg" xmlns:xlink="http://www.w3.org/1999/xlink" x="0px" y="0px"
	 viewBox="0 0 56 56" enable-background="new 0 0 56 56" xml:space="preserve">
<g>
	<g>
		<path fill="#2AAAE2" d="M28,55C13.1,55,1,42.9,1,28C1,13.1,13.1,1,28,1s27,12.1,27,27C55,42.9,42.9,55,28,55z M28,3.1
			C14.2,3.1,3.1,14.3,3.1,28c0,13.7,11.2,24.9,24.9,24.9S52.9,41.8,52.9,28C52.9,14.3,41.7,3.1,28,3.1z"/>
		<path fill="#2AAAE2" d="M15,18.4v3h26v-3H15z M15,26.5v3h26v-3H15z M15,34.7v3h26v-3H15z"/>
	</g>
</g>
</svg>
