<?xml version="1.0" encoding="utf-8"?>
<!-- Generator: Adobe Illustrator 18.1.1, SVG Export Plug-In . SVG Version: 6.00 Build 0)  -->
<svg version="1.1" id="Layer_1" xmlns="http://www.w3.org/2000/svg" xmlns:xlink="http://www.w3.org/1999/xlink" x="0px" y="0px"
	 viewBox="0 246 612 288" enable-background="new 0 246 612 288" xml:space="preserve">
<g>
	<path d="M16.1,491.1l7.2-13.4c1.1-2.8,5-3.9,8.9-1.7c0,0,15,8.9,32.3,8.9c10.6,0,16.7-3.9,16.7-11.7c0-9.5-7.8-13.9-26.7-22.3
		C33.4,441.6,15,428.8,15,406c0-17.2,13.9-37.8,47.3-37.8c19.5,0,33.9,6.1,40.6,10.6c3.3,2.2,5,6.7,2.8,10l-5.6,11.1
		c-1.7,3.3-6.1,3.9-8.9,2.8c0,0-15-7.2-28.4-7.2c-11.7,0-15.6,5-15.6,10.6c0,8.9,8.9,12.8,22.3,18.9c25,11.1,46.2,21.7,46.2,47.8
		c0,21.1-20.6,40.6-51.2,40.6c-23.4,0-38.4-8.3-45.6-13.9C16.1,497.3,15,493.9,16.1,491.1z"/>
	<path d="M128,378.8c-2.2-4.5,0-7.8,5-7.8h18.9c2.2,0,5.6,1.7,6.1,3.9l22.8,76.8h0.6l36.7-80.7c0.6-1.7,3.3-3.3,6.1-3.3h2.2
		c3.3,0,5,1.7,6.1,3.3l36.2,80.7h0.6l22.8-76.8c1.7-3.9,6.7-3.9,10.6-3.9H316c5,0,7.2,3.3,5,7.8l-40.6,130.2
		c-0.6,2.2-3.3,3.3-6.1,3.3h-1.1c-2.8,0-5-1.1-6.1-3.3l-42.3-92.4h-0.6l-42.3,92.4c-0.6,1.7-2.8,3.3-5.6,3.3h-1.7
		c-2.8,0-5-1.1-6.1-3.3L128,378.8z"/>
	<path d="M402.3,367.6c36.2,0,63.4,26.7,63.4,64c0,2.2-0.6,6.7-0.6,9.5c-0.6,3.3-3.3,6.1-6.1,6.1h-94c1.1,18.9,17.2,36.7,39.5,36.7
		c12.2,0,23.9-5.6,30.6-10c3.9-2.2,6.7-3.9,9.5-0.6l9.5,13.4c2.2,2.8,3.3,5.6-0.6,8.9c-10,8.9-27.8,17.2-51.2,17.2
		c-41.7,0-69.5-32.8-69.5-72.3C333.3,401,361.1,367.6,402.3,367.6z M434,424.9c-1.1-16.7-15-30.6-31.7-30.6
		c-18.9,0-33.4,13.4-35.1,30.6H434z"/>
	<path d="M494.1,274.2c0-3.3,3.3-6.7,6.7-6.7h19.5c3.3,0,6.7,3.3,6.7,6.7v228.7c0,3.3-3.3,6.7-6.7,6.7h-19.5c-3.3,0-6.7-3.3-6.7-6.7
		V274.2z"/>
	<path d="M564.2,274.2c0-3.3,3.3-6.7,6.7-6.7h19.5c3.3,0,6.7,3.3,6.7,6.7v228.7c0,3.3-3.3,6.7-6.7,6.7h-19.5c-3.3,0-6.7-3.3-6.7-6.7
		V274.2z"/>
</g>
</svg>
