<?xml version="1.0" encoding="utf-8"?>
<!-- Generator: Adobe Illustrator 17.1.0, SVG Export Plug-In . SVG Version: 6.00 Build 0)  -->
<!DOCTYPE svg PUBLIC "-//W3C//DTD SVG 1.1//EN" "http://www.w3.org/Graphics/SVG/1.1/DTD/svg11.dtd">
<svg version="1.1" id="Layer_1" xmlns="http://www.w3.org/2000/svg" xmlns:xlink="http://www.w3.org/1999/xlink" x="0px" y="0px"
	 viewBox="0 0 44 44" enable-background="new 0 0 44 44" xml:space="preserve">
<g>
	<g>
		<path fill="#FFFFFF" d="M22,0.5C10.1,0.5,0.5,10.1,0.5,22S10.1,43.5,22,43.5c11.9,0,21.5-9.6,21.5-21.5S33.9,0.5,22,0.5z M22,41
			C11.5,41,3,32.5,3,22C3,11.5,11.5,3,22,3s19,8.5,19,19C41,32.5,32.5,41,22,41z"/>
	</g>
	<g>
		<path fill="#FFFFFF" d="M26.1,16.2L22,20.2l-4.1-4.1c-0.5-0.5-1.3-0.5-1.8,0c-0.5,0.5-0.5,1.3,0,1.8l4.1,4.1l-4.1,4.1
			c-0.5,0.5-0.5,1.3,0,1.8c0.5,0.5,1.3,0.5,1.8,0l4.1-4.1l4.1,4.1c0.5,0.5,1.3,0.5,1.8,0c0.5-0.5,0.5-1.3,0-1.8L23.8,22l4.1-4.1
			c0.5-0.5,0.5-1.3,0-1.8C27.3,15.7,26.5,15.7,26.1,16.2z"/>
	</g>
</g>
</svg>
