<?xml version="1.0" encoding="utf-8"?>
<!-- Generator: Adobe Illustrator 17.1.0, SVG Export Plug-In . SVG Version: 6.00 Build 0)  -->
<!DOCTYPE svg PUBLIC "-//W3C//DTD SVG 1.1//EN" "http://www.w3.org/Graphics/SVG/1.1/DTD/svg11.dtd">
<svg version="1.1" id="Layer_1" xmlns="http://www.w3.org/2000/svg" xmlns:xlink="http://www.w3.org/1999/xlink" x="0px" y="0px"
	 viewBox="0 0 612 792" enable-background="new 0 0 612 792" xml:space="preserve">
<g>
	<g>
		<path fill="#2AAAE2" d="M306,686.7c-162.8,0-295.1-132.2-295.1-295.1S143.2,96.6,306,96.6s295.1,132.2,295.1,295.1
			S468.8,686.7,306,686.7z M306,119.5c-150.8,0-272.1,121.3-272.1,272.1c0,149.7,122.4,272.1,272.1,272.1s272.1-122.4,272.1-272.1
			C578.1,240.8,455.7,119.5,306,119.5z"/>
		<path fill="#2AAAE2" d="M233.9,293.3l-26.2,26.2l13.1,13.1l59,59l-59,59l-13.1,13.1l26.2,26.2l13.1-13.1l59-59l59,59l13.1,13.1
			l26.2-26.2l-13.1-13.1l-59-59l59-59l13.1-13.1l-26.2-26.2L365,306.4l-59,59l-59-59L233.9,293.3z"/>
	</g>
</g>
</svg>
