<?xml version="1.0" encoding="utf-8"?>
<!-- Generator: Adobe Illustrator 17.1.0, SVG Export Plug-In . SVG Version: 6.00 Build 0)  -->
<!DOCTYPE svg PUBLIC "-//W3C//DTD SVG 1.1//EN" "http://www.w3.org/Graphics/SVG/1.1/DTD/svg11.dtd">
<svg version="1.1" id="Layer_1" xmlns="http://www.w3.org/2000/svg" xmlns:xlink="http://www.w3.org/1999/xlink" x="0px" y="0px"
	 viewBox="0 0 40 40" enable-background="new 0 0 40 40" xml:space="preserve">
<path fill="#4D4D4D" d="M40,7.6c-1.5,0.7-3,1-4.8,1.3c1.7-1,3-2.7,3.6-4.5c-1.6,0.9-3.4,1.6-5.2,2c-1.5-1.6-3.6-2.6-6-2.6
	c-4.5,0-8.2,3.7-8.2,8.2c0,0.7,0.1,1.3,0.2,1.9C13,13.5,7,10.3,2.9,5.3C2.2,6.4,1.7,7.9,1.7,9.4c0,2.9,1.4,5.3,3.6,6.8
	c-1.4,0-2.6-0.5-3.7-1v0.1c0,3.9,2.8,7.3,6.6,8c-0.7,0.2-1.4,0.2-2.2,0.2c-0.6,0-1,0-1.5-0.1c1,3.2,4.1,5.7,7.7,5.7
	C9.4,31.4,5.8,32.6,2,32.6c-0.7,0-1.3,0-2-0.1c3.6,2.3,7.9,3.7,12.5,3.7c15.1,0,23.3-12.5,23.3-23.3c0-0.3,0-0.7,0-1
	C37.6,10.7,39,9.3,40,7.6z"/>
</svg>
