<?xml version="1.0" encoding="utf-8"?>
<!-- Generator: Adobe Illustrator 17.1.0, SVG Export Plug-In . SVG Version: 6.00 Build 0)  -->
<!DOCTYPE svg PUBLIC "-//W3C//DTD SVG 1.1//EN" "http://www.w3.org/Graphics/SVG/1.1/DTD/svg11.dtd">
<svg version="1.1" id="Layer_1" xmlns="http://www.w3.org/2000/svg" xmlns:xlink="http://www.w3.org/1999/xlink" x="0px" y="0px"
	 viewBox="0 0 60 60" enable-background="new 0 0 60 60" xml:space="preserve">
<g>
	<g>
		<path fill="#CCCCCC" d="M30,60c16.5,0,30-13.5,30-30C60,13.5,46.5,0,30,0C13.5,0,0,13.5,0,30C0,46.5,13.5,60,30,60z M30,3.5
			c14.6,0,26.5,11.9,26.5,26.5c0,14.6-11.9,26.5-26.5,26.5S3.5,44.6,3.5,30C3.5,15.4,15.4,3.5,30,3.5z"/>
	</g>
	<g>
		<path fill="#CCCCCC" d="M33.1,45.3c0.7,0.7,1.8,0.7,2.4,0c0.7-0.7,0.7-1.8,0-2.4L22.7,30l12.9-12.9c0.7-0.7,0.7-1.8,0-2.4
			c-0.3-0.3-0.8-0.5-1.2-0.5c-0.4,0-0.9,0.2-1.2,0.5L19.1,28.8c-0.7,0.7-0.7,1.8,0,2.4L33.1,45.3z"/>
	</g>
</g>
</svg>
