<?xml version="1.0" encoding="utf-8"?>
<!-- Generator: Adobe Illustrator 17.1.0, SVG Export Plug-In . SVG Version: 6.00 Build 0)  -->
<!DOCTYPE svg PUBLIC "-//W3C//DTD SVG 1.1//EN" "http://www.w3.org/Graphics/SVG/1.1/DTD/svg11.dtd">
<svg version="1.1" id="Layer_1" xmlns="http://www.w3.org/2000/svg" xmlns:xlink="http://www.w3.org/1999/xlink" x="0px" y="0px"
	 viewBox="0 0 110 54" enable-background="new 0 0 110 54" xml:space="preserve">
<g>
	<path fill="#FFFFFF" d="M2.9,44.1l1.3-2.4c0.2-0.5,0.9-0.7,1.6-0.3c0,0,2.7,1.6,5.8,1.6c1.9,0,3-0.7,3-2.1c0-1.7-1.4-2.5-4.8-4
		c-3.8-1.7-7.1-4-7.1-8.1c0-3.1,2.5-6.8,8.5-6.8c3.5,0,6.1,1.1,7.3,1.9c0.6,0.4,0.9,1.2,0.5,1.8L18,27.7c-0.3,0.6-1.1,0.7-1.6,0.5
		c0,0-2.7-1.3-5.1-1.3c-2.1,0-2.8,0.9-2.8,1.9c0,1.6,1.6,2.3,4,3.4c4.5,2,8.3,3.9,8.3,8.6c0,3.8-3.7,7.3-9.2,7.3
		c-4.2,0-6.9-1.5-8.2-2.5C2.9,45.2,2.7,44.6,2.9,44.1z"/>
	<path fill="#FFFFFF" d="M23,23.9c-0.4-0.8,0-1.4,0.9-1.4h3.4c0.4,0,1,0.3,1.1,0.7L32.5,37h0.1l6.6-14.5c0.1-0.3,0.6-0.6,1.1-0.6
		h0.4c0.6,0,0.9,0.3,1.1,0.6L48.3,37h0.1l4.1-13.8c0.3-0.7,1.2-0.7,1.9-0.7h2.4c0.9,0,1.3,0.6,0.9,1.4l-7.3,23.4
		c-0.1,0.4-0.6,0.6-1.1,0.6h-0.2c-0.5,0-0.9-0.2-1.1-0.6l-7.6-16.6h-0.1l-7.6,16.6c-0.1,0.3-0.5,0.6-1,0.6h-0.3
		c-0.5,0-0.9-0.2-1.1-0.6L23,23.9z"/>
	<path fill="#FFFFFF" d="M72.3,21.9c6.5,0,11.4,4.8,11.4,11.5c0,0.4-0.1,1.2-0.1,1.7c-0.1,0.6-0.6,1.1-1.1,1.1H65.6
		c0.2,3.4,3.1,6.6,7.1,6.6c2.2,0,4.3-1,5.5-1.8c0.7-0.4,1.2-0.7,1.7-0.1l1.7,2.4c0.4,0.5,0.6,1-0.1,1.6c-1.8,1.6-5,3.1-9.2,3.1
		c-7.5,0-12.5-5.9-12.5-13C59.9,27.9,64.9,21.9,72.3,21.9z M78,32.2c-0.2-3-2.7-5.5-5.7-5.5c-3.4,0-6,2.4-6.3,5.5H78z"/>
	<path fill="#FFFFFF" d="M88.8,5.1c0-0.6,0.6-1.2,1.2-1.2h3.5c0.6,0,1.2,0.6,1.2,1.2v41.1c0,0.6-0.6,1.2-1.2,1.2h-3.5
		c-0.6,0-1.2-0.6-1.2-1.2V5.1z"/>
	<path fill="#FFFFFF" d="M101.4,5.1c0-0.6,0.6-1.2,1.2-1.2h3.5c0.6,0,1.2,0.6,1.2,1.2v41.1c0,0.6-0.6,1.2-1.2,1.2h-3.5
		c-0.6,0-1.2-0.6-1.2-1.2V5.1z"/>
</g>
</svg>
