<?xml version="1.0" encoding="utf-8"?>
<!-- Generator: Adobe Illustrator 17.1.0, SVG Export Plug-In . SVG Version: 6.00 Build 0)  -->
<!DOCTYPE svg PUBLIC "-//W3C//DTD SVG 1.1//EN" "http://www.w3.org/Graphics/SVG/1.1/DTD/svg11.dtd">
<svg version="1.1" id="Layer_1" xmlns="http://www.w3.org/2000/svg" xmlns:xlink="http://www.w3.org/1999/xlink" x="0px" y="0px"
	 viewBox="0 0 60 60" enable-background="new 0 0 60 60" xml:space="preserve">
<g>
	<g>
		<path fill="#CCCCCC" d="M30,0C13.5,0,0,13.5,0,30c0,16.5,13.5,30,30,30c16.5,0,30-13.5,30-30C60,13.5,46.5,0,30,0z M30,56.5
			C15.4,56.5,3.5,44.6,3.5,30C3.5,15.4,15.4,3.5,30,3.5S56.5,15.4,56.5,30C56.5,44.6,44.6,56.5,30,56.5z"/>
	</g>
	<g>
		<path fill="#CCCCCC" d="M26.9,14.7c-0.7-0.7-1.8-0.7-2.4,0c-0.7,0.7-0.7,1.8,0,2.4L37.3,30L24.4,42.9c-0.7,0.7-0.7,1.8,0,2.4
			c0.3,0.3,0.8,0.5,1.2,0.5c0.4,0,0.9-0.2,1.2-0.5l14.1-14.1c0.7-0.7,0.7-1.8,0-2.4L26.9,14.7z"/>
	</g>
</g>
</svg>
